
<svg height="300" viewBox="0 0 300 300" width="300" xmlns="http://www.w3.org/2000/svg"><g fill="none" fill-rule="evenodd"><rect fill="#252f3e" height="300" rx="40" width="300"/><g transform="translate(30 89)"><path d="m68.4100798 52.1010638c0 2.9521277.3176214 5.3457447.873459 7.1010639.6352429 1.7553191 1.4292966 3.6702127 2.5409717 5.7446808.3970268.6382979.5558376 1.2765958.5558376 1.8351064 0 .7978723-.4764322 1.5957447-1.508702 2.393617l-5.0025381 3.3510638c-.7146482.4787234-1.4292965.7180852-2.0645395.7180852-.7940536 0-1.5881073-.3989362-2.382161-1.1170213-1.1116751-1.1968085-2.0645395-2.4734043-2.8585931-3.75-.7940537-1.356383-1.5881074-2.8723405-2.4615664-4.7074468-6.1936186 7.3404255-13.9753444 11.0106383-23.3451777 11.0106383-6.6700507 0-11.9902103-1.9148937-15.8810732-5.7446809s-5.8759971-8.9361702-5.8759971-15.3191489c0-6.7819149 2.382161-12.2872341 7.2258883-16.4361702 4.8437274-4.1489362 11.275562-6.2234043 19.4543147-6.2234043 2.6997825 0 5.4789703.2393617 8.4169689.6382979 2.9379985.3989362 5.9554024 1.037234 9.1316171 1.7553191v-5.8244681c0-6.0638297-1.2704859-10.2925531-3.7320522-12.7659574-2.5409718-2.4734043-6.8288615-3.6702128-12.9430747-3.6702128-2.7791878 0-5.637781.319149-8.5757796 1.0372341-2.9379985.7180851-5.7965917 1.5957447-8.5757795 2.7127659-1.2704859.5585107-2.2233503.8776596-2.7791878 1.0372341-.5558376.1595744-.9528644.2393617-1.2704859.2393617-1.1116751 0-1.6675127-.7978724-1.6675127-2.4734043v-3.90957445c0-1.27659574.1588107-2.23404255.5558376-2.79255319.3970268-.55851064 1.1116751-1.11702127 2.2233502-1.67553191 2.7791878-1.43617022 6.1142132-2.63297873 10.0050762-3.59042554 3.8908629-1.03723404 8.019942-1.51595744 12.3872371-1.51595744 9.4492386 0 16.3575054 2.15425532 20.8042059 6.46276596 4.3672952 4.30851067 6.5906454 10.85106387 6.5906454 19.62765957v25.8510638zm-32.2385787 12.1276596c2.6203771 0 5.3201595-.4787234 8.1787527-1.4361702s5.3995649-2.712766 7.5435098-5.106383c1.2704859-1.5159574 2.2233503-3.1914893 2.6997824-5.106383.4764322-1.9148936.7940537-4.2287234.7940537-6.9414893v-3.3510639c-2.3027556-.5585106-4.764322-1.037234-7.3052937-1.3563829-2.5409717-.319149-5.0025381-.4787234-7.4641044-.4787234-5.3201595 0-9.2110225 1.037234-11.8313996 3.1914893s-3.8908629 5.1861702-3.8908629 9.1755319c0 3.75.9528644 6.5425532 2.9379985 8.4574468 1.9057288 1.9946809 4.6849166 2.9521277 8.3375635 2.9521277zm63.7625091 8.6170213c-1.4292966 0-2.382161-.2393617-3.017404-.7978724-.6352429-.4787234-1.1910805-1.5957446-1.6675127-3.1117021l-18.660261-61.6755319c-.4764322-1.59574468-.7146483-2.63297873-.7146483-3.19148936 0-1.27659575.6352429-1.99468085 1.9057288-1.99468085h7.7817259c1.5087019 0 2.5409717.2393617 3.0968093.79787234.6352429.4787234 1.1116751 1.59574468 1.5881073 3.11170212l13.3401015 52.81914895 12.387237-52.81914895c.397027-1.59574468.873459-2.63297872 1.508702-3.11170212.635243-.47872341 1.746918-.79787234 3.176215-.79787234h6.352429c1.508702 0 2.540972.2393617 3.176215.79787234.635243.4787234 1.19108 1.59574468 1.508702 3.11170212l12.546047 53.45744685 13.737129-53.45744685c.476432-1.59574468 1.03227-2.63297872 1.588107-3.11170212.635243-.47872341 1.667513-.79787234 3.096809-.79787234h7.3847c1.270485 0 1.985134.63829787 1.985134 1.99468085 0 .39893617-.079406.79787234-.158811 1.27659574-.079405.47872341-.238216 1.11702128-.555838 1.99468085l-19.136693 61.67553187c-.476432 1.5957447-1.03227 2.6329788-1.667513 3.1117022s-1.667512.7978723-3.017403.7978723h-6.828862c-1.508702 0-2.540972-.2393617-3.176215-.7978723-.635243-.5585107-1.19108-1.5957447-1.508702-3.1914894l-12.307831-51.4627659-12.228427 51.3829787c-.397027 1.5957447-.873459 2.6329787-1.508702 3.1914893-.635243.5585107-1.746918.7978724-3.176214.7978724zm102.0358958 2.1542553c-4.129079 0-8.258158-.4787234-12.228427-1.4361702-3.970268-.9574468-7.067077-1.9946809-9.131617-3.1914894-1.270486-.7180851-2.143945-1.5159574-2.461566-2.2340425-.317622-.7180851-.476432-1.5159575-.476432-2.2340426v-4.0691489c0-1.6755319.635243-2.4734043 1.826323-2.4734043.476432 0 .952864.0797873 1.429297.2393617.476432.1595745 1.19108.4787234 1.985134.7978724 2.699782 1.1968085 5.637781 2.1542553 8.73459 2.7925532 3.176215.6382978 6.273024.9574468 9.449239.9574468 5.002538 0 8.893401-.8776596 11.593183-2.6329788 2.699783-1.7553191 4.129079-4.3085106 4.129079-7.5797872 0-2.2340425-.714648-4.0691489-2.143945-5.5851064-1.429296-1.5159574-4.129079-2.8723404-8.019942-4.1489361l-11.513778-3.5904256c-5.796591-1.8351064-10.084481-4.5478723-12.704858-8.1382978-2.620377-3.5106383-3.970269-7.4202128-3.970269-11.569149 0-3.3510638.714649-6.3031915 2.143945-8.856383 1.429297-2.55319145 3.335026-4.787234 5.717187-6.54255315 2.382161-1.83510638 5.081943-3.19148936 8.258158-4.14893617 3.176214-.95744681 6.51124-1.35638298 10.005076-1.35638298 1.746918 0 3.573241.07978723 5.320159.31914894 1.826324.2393617 3.493836.55851063 5.161349.87765957 1.588107.39893617 3.096809.79787234 4.526106 1.27659575 1.429297.4787234 2.540972.9574468 3.335025 1.43617021 1.111676.63829787 1.905729 1.27659574 2.382161 1.99468085.476433.63829787.714649 1.51595745.714649 2.63297872v3.74999996c0 1.675532-.635243 2.5531915-1.826324 2.5531915-.635243 0-1.667512-.3191489-3.017404-.9574468-4.526106-2.0744681-9.608049-3.1117021-15.24583-3.1117021-4.526106 0-8.099347.7180851-10.560914 2.2340425-2.461566 1.5159575-3.732052 3.8297873-3.732052 7.1010639 0 2.2340425.794054 4.1489361 2.382161 5.6648936 1.588107 1.5159574 4.526106 3.0319149 8.73459 4.3882979l11.275562 3.5904255c5.717187 1.8351064 9.846266 4.3882979 12.307832 7.6595745 2.461567 3.2712766 3.652647 7.0212766 3.652647 11.1702127 0 3.4308511-.714648 6.5425532-2.06454 9.2553192-1.429296 2.7127659-3.335025 5.106383-5.796591 7.0212766-2.461567 1.9946808-5.399565 3.430851-8.813996 4.4680851-3.573241 1.1170213-7.305294 1.6755319-11.354967 1.6755319z" fill="#fff" fill-rule="nonzero"/><g fill="#f90" transform="translate(0 89)"><path d="m216.556291 24.3794118c-26.145695 19.2970588-64.13245 29.5411764-96.794702 29.5411764-45.774834 0-87.0198671-16.9147058-118.17218503-45.02647055-2.46357616-2.22352941-.23841059-5.24117647 2.70198676-3.49411765 33.69536427 19.5352941 75.25827817 31.3676471 118.25165527 31.3676471 29.006623 0 60.874173-6.0352942 90.198676-18.4235295 4.370861-1.9852941 8.10596 2.8588236 3.814569 6.0352942z"/><path d="m227.443709 11.9911765c-3.337749-4.28823532-22.092716-2.06470591-30.596027-1.032353-2.543046.3176471-2.940397-1.90588232-.635761-3.57352938 14.940397-10.48235294 39.496688-7.46470588 42.357615-3.97058824 2.860928 3.57352941-.794702 28.11176472-14.781457 39.86470592-2.145695 1.8264706-4.21192.8735294-3.258278-1.5088236 3.178808-7.8617647 10.251656-25.5705882 6.913908-29.7794117z"/></g></g></g></svg>
