<?xml version="1.0" encoding="UTF-8" standalone="no"?>
<svg xmlns:dc="http://purl.org/dc/elements/1.1/" xmlns:cc="http://creativecommons.org/ns#" xmlns:rdf="http://www.w3.org/1999/02/22-rdf-syntax-ns#" xmlns:svg="http://www.w3.org/2000/svg" xmlns="http://www.w3.org/2000/svg" version="1.1" width="3890" height="2168" id="svg2">
  <metadata id="metadata8">
    <rdf:RDF>
      <cc:Work rdf:about="">
        <dc:format>image/svg+xml</dc:format>
        <dc:type rdf:resource="http://purl.org/dc/dcmitype/StillImage"/>
        <dc:title/>
      </cc:Work>
    </rdf:RDF>
  </metadata>
  <defs id="defs6"/>
  <g id="g5" style="fill:#cccccc">
    <path d="m 2889.39,6.3480122 -2.04,-4.07 c -1.01,-1.01 -2.03,-2.04 -4.06,-2.04 l -4.08,1.03 c -2.03,2.03 -3.05,3.05 -3.05,5.08 L 2789.64,1572.695 l 13.24,-2.035 83.46,-1523.70199 99.75,163.88 -1.02,0 c 75.32,221.88 106.87,458.02 94.66,708.41003 l 6.11,9.16 98.73,175.05996 6.1,6.11 c 151.66,133.336 321.63,222.907 509.94,268.707 l 45.8,74.309 6.11,2.031 1.02,-2.031 -866.19,-1416.82599 2.04,-29.52" id="path14"/>
    <path d="m 2858.86,559.02801 c 106.87,218.84 145.54,549.62999 117.05,992.39199 l 416.29,-50.894 z" id="path18"/>
    <path d="m 3807.48,1520.881 c 42.74,-5.086 70.22,-14.246 82.44,-27.476 l -2178.16,265.656 -1.02,0 c 1.02,90.586 41.73,161.836 121.12,212.723 21.37,15.269 43.77,26.465 64.12,33.59 19.34,-22.387 40.72,-38.676 66.17,-53.946 l 1.01,0 c 228,-138.422 566.94,-159.8 1014.78,-65.136 l 5.09,1.011 c 48.86,10.18 97.71,22.399 143.52,36.645 13.22,2.035 24.42,-2.035 33.58,-10.18 16.29,-12.215 36.65,-21.375 64.13,-27.476 l 0,-1.02 c 72.27,-128.25 169.97,-222.906 292.12,-284.996 84.48,-41.727 182.19,-69.215 291.1,-79.395" id="path20"/>
    <path d="M 2761.15,1560.585 2860.89,31.798012 C 2716.36,589.56801 2484.29,1110.698 2165.71,1594.167 l 595.44,-33.582" id="path22"/>
    <path d="m 2200.32,329.008 -4.07,-2.04 -4.07,1.02 -2.04,5.08 -82.44,1323.18799 12.21,-1.019 82.45,-1322.169 -2.04,-4.06" id="path24"/>
    <path d="m 2084.29,1627.756 0,0 87.53,-1290.608 -461.08,1330.308 373.55,-39.7" id="path26"/>
  </g>
  <g id="g13" style="fill:none;stroke:#cccccc;stroke-width:12;stroke-linecap:round;stroke-linejoin:round">
    <path d="m 2102.61,2057.9534 c -115.02,54.9606 -198.48,64.1207 -251.41,30.5387 -52.93,-35.6247 -134.36,-27.4847 -244.28,24.4219" id="path34"/>
    <path d="m 2372.33,2066.093 c -21.37,-7.125 -44.78,-12.211 -69.21,-14.25 -49.87,-4.066 -109.93,15.27 -180.16,57.0042 -70.23,42.746 -154.71,59.0351 -255.48,49.8711" id="path36"/>
    <path d="m 3000.34,1962.273 c -484.5,-99.742 -833.61,-76.336 -1047.35,71.25" id="path38"/>
    <path d="m 3305.69,2010.117 c -21.38,-8.145 -44.79,-13.235 -69.22,-14.254 -49.87,-4.067 -109.92,15.269 -180.15,57.004 -70.23,41.7262 -154.71,58.0114 -255.48,49.8708" id="path40"/>
    <path d="m 2655.29,341.21801 c -49.88,-30.54 -101.78,-22.39 -155.73,25.44 -46.82,-47.83 -95.67,-55.98 -146.57,-25.44" id="path42" style="stroke-width:29"/>
    <path d="m 2542.31,170.21801 c -50.89,-30.53 -100.76,-18.32 -151.66,36.64 -49.88,-54.96 -100.76,-67.17 -151.66,-36.64" id="path44" style="stroke-width:29"/>
  </g>
  <g style="fill:#6c78af" id="g33">
    <path d="m 56.770404,1763.8603 134.914516,0 c 40.53785,0 70.3051,11.5406 89.30315,34.6149 18.99058,23.0812 25.15303,55.2422 18.48477,96.4878 -2.73388,16.9207 -7.61168,32.4501 -14.63698,46.5933 -7.02825,14.1442 -16.30891,27.067 -27.84598,38.7573 -13.71822,14.0684 -29.07355,24.148 -46.07783,30.2307 -17.00335,6.0818 -38.74881,9.1232 -65.23042,9.1232 l -60.093245,0 -14.951878,92.5154 -70.16450702,0 56.29840402,-348.3226 z m 61.252276,55.1047 -23.613063,146.1033 42.675303,0 c 28.28742,0 49.25184,-5.7744 62.90101,-17.3383 13.63797,-11.5649 22.6337,-30.807 26.98842,-57.7355 4.19709,-25.968 1.75658,-44.2941 -7.2996,-54.9935 -9.06329,-10.6883 -26.92099,-16.036 -53.57751,-16.036 l -48.07456,0" id="path66"/>
    <path d="m 378.24196,1671.3451 69.63516,0 -14.95189,92.5152 61.94982,0 c 38.98987,0 66.01185,7.3901 81.07593,22.1571 15.06891,14.7762 19.95224,38.5804 14.64264,71.4329 l -26.22037,162.2172 -70.68973,0 24.9538,-154.3893 c 2.84147,-17.5516 1.46456,-29.4876 -4.12427,-35.815 -5.58913,-6.3193 -17.28356,-9.4871 -35.06873,-9.4871 l -55.57891,0 -32.27423,199.6914 -69.64729,0 56.29807,-348.3224" id="path68"/>
    <path d="m 666.43774,1763.8603 134.9135,0 c 40.54695,0 70.30511,11.5406 89.30319,34.6149 18.99454,23.0812 25.15404,55.2422 18.4898,96.4878 -2.7339,16.9207 -7.61577,32.4501 -14.63297,46.5933 -7.03329,14.1442 -16.32202,27.067 -27.85103,38.7573 -13.72229,14.0684 -29.07657,24.148 -46.08084,30.2307 -17.00032,6.0818 -38.74478,9.1232 -65.23548,9.1232 l -60.08435,0 -14.95188,92.5154 -70.16093,0 56.29099,-348.3226 z m 61.26036,55.1047 -23.61306,146.1033 42.6753,0 c 28.28641,0 49.2478,-5.7744 62.88888,-17.3383 13.641,-11.5649 22.64179,-30.807 26.99549,-57.7355 4.19406,-25.968 1.7576,-44.2941 -7.30364,-54.9935 -9.06329,-10.6883 -26.92099,-16.036 -53.56841,-16.036 l -48.07456,0" id="path70"/>
  </g>
  <g style="fill:#f89c0e" id="g65">
    <path d="m 1027.7488,1597.3243 134.9473,0 59.2813,323.8687 163.9729,-323.8687 134.4328,0 -68.203,422.055 -90.0955,0 60.5624,-328.7447 -165.335,328.7447 -97.63,0 -62.0922,-332.1897 -44.4691,332.1897 -93.58345,0 68.21155,-422.055" id="path72"/>
    <path d="m 1682.3349,1951.0787 68.129,0 39.0484,-241.6556 84.6928,0 -48.7474,301.634 c -6.6176,41.0085 -21.4426,71.3829 -44.4508,91.1237 -23.0089,19.7312 -54.9295,29.6038 -95.7507,29.6038 l -166.0776,0 10.1515,-62.7878 151.4988,0 c 16.2574,0 29.3646,-3.7991 39.3223,-11.39 9.9443,-7.6043 16.0994,-18.6108 18.427,-33.0342 l 0.8443,-5.1933 -74.9653,0 c -47.9513,0 -80.6531,-9.1406 -98.0934,-27.4219 -17.4525,-18.2801 -22.7167,-48.7649 -15.8297,-91.453 l 30.891,-191.0813 83.7372,0 -29.8633,184.7645 c -3.7745,23.3729 -2.642,38.6968 3.4343,45.9753 6.0641,7.2784 20.5937,10.9158 43.6016,10.9158" id="path74"/>
    <path d="m 2102.3044,1597.3243 97.5197,0 118.1874,422.055 -102.2734,0 -23.907,-100.4601 -189.9554,0 -55.1868,100.4601 -97.5321,0 253.1476,-422.055 z m 31.6507,83.8058 -90.1808,162.444 130.2183,0 -40.0375,-162.444" id="path76"/>
    <path d="m 2637.3031,2019.3793 -162.6964,0 c -49.1642,0 -85.2663,-13.9786 -108.3193,-41.9409 -23.0404,-27.9573 -30.5053,-66.9321 -22.4309,-116.9135 3.316,-20.4913 9.2287,-39.3092 17.7509,-56.4463 8.5217,-17.1419 19.771,-32.7965 33.7592,-46.9712 16.6286,-17.0415 35.3095,-29.2498 56.0305,-36.6239 20.7209,-7.3752 47.0449,-11.0604 78.9594,-11.0604 l 72.6621,0 18.1132,-112.0988 84.3865,0 -68.2152,422.055 z m -73.6376,-66.4629 28.5697,-176.7241 -51.2224,0 c -34.3524,0 -59.8397,6.9489 -76.4874,20.8321 -16.6223,13.8929 -27.5723,37.0269 -32.8017,69.397 -5.0795,31.4221 -2.0777,53.6898 9.0062,66.8122 11.0837,13.1222 32.7053,19.6828 64.8648,19.6828 l 58.0708,0" id="path78"/>
    <path d="m 2761.0228,1709.4231 325.2334,0 c 47.155,0 79.7016,8.9067 97.6259,26.6992 17.9129,17.8022 23.6511,46.7028 17.1903,86.702 l -31.7718,196.555 -85.3299,0 30.0434,-185.9259 c 3.6903,-22.7947 2.5585,-37.8305 -3.3836,-45.1151 -5.966,-7.2785 -20.0182,-10.9208 -42.1807,-10.9208 l -47.5103,0 -39.1073,241.9618 -86.604,0 39.1073,-241.9618 -98.9777,0 -39.1073,241.9618 -85.3298,0 50.1021,-309.9562" id="path80"/>
    <path d="m 3389.6515,1674.2008 -88.8214,0 12.4228,-76.8765 88.8214,0 -12.4228,76.8765 z m -55.7924,345.1785 -88.8215,0 50.0899,-309.9562 88.8214,0 -50.0898,309.9562" id="path82"/>
    <path d="m 3457.2112,1709.4231 159.3518,0 c 48.1596,0 81.1348,8.7634 98.9115,26.2691 17.7775,17.5156 23.3935,46.5596 16.8359,87.1321 l -31.7597,196.555 -84.705,0 30.1524,-186.5005 c 3.7421,-23.1817 2.4511,-38.2189 -3.8732,-45.1102 -6.325,-6.9 -20.6913,-10.3511 -43.0866,-10.3511 l -68.1168,0 -39.1072,241.9618 -84.6928,0 50.0897,-309.9562" id="path84"/>
  </g>
</svg>