<?xml version="1.0" encoding="UTF-8"?>
<!-- Created with Inkscape (http://www.inkscape.org/) -->
<svg  version="1.0" xmlns="http://www.w3.org/2000/svg"  width="200.000000pt" height="200.000000pt" viewBox="0 0 200.000000 200.000000"  preserveAspectRatio="xMidYMid meet">  <g transform="translate(0.000000,200.000000) scale(0.100000,-0.100000)" fill="#f72626" stroke="none"> <path d="M944 1987 c-14 -15 31 15 -479 -322 -237 -156 -436 -289 -443 -295 -8 -7 -12 -42 -12 -103 l0 -92 308 -204 c702 -467 627 -421 682 -421 41 0 61 7 108 37 31 21 62 42 67 46 6 4 190 127 410 273 219 145 403 270 407 277 4 6 8 48 8 92 0 65 -3 83 -17 93 -10 7 -79 53 -153 102 -74 49 -142 94 -150 100 -8 5 -152 101 -320 212 -168 112 -306 206 -308 210 -6 13 -96 8 -108 -5z m196 -301 c58 -38 109 -73 115 -78 5 -4 119 -80 253 -169 133 -88 242 -165 242 -170 0 -5 -149 -9 -374 -9 -332 0 -375 2 -380 16 -8 20 -8 457 0 478 8 20 19 14 144 -68z m-308 -281 l3 -240 63 -42 64 -43 239 0 c269 0 278 -3 187 -61 -29 -18 -55 -36 -58 -39 -4 -4 -86 -59 -255 -169 -22 -14 -41 -29 -43 -33 -2 -5 -13 -8 -24 -8 -23 0 -758 485 -758 501 0 5 21 23 47 39 27 17 56 36 66 42 10 7 97 66 195 130 97 64 195 130 217 146 22 17 43 27 47 23 4 -4 9 -114 10 -246z"/> <path d="M12 753 l3 -118 475 -317 c380 -253 482 -317 508 -317 28 -1 119 56 516 320 l482 321 1 114 c0 81 -3 114 -11 114 -9 0 -600 -386 -736 -480 -68 -47 -245 -160 -250 -160 -8 0 -84 50 -445 290 -88 59 -178 119 -200 133 -22 15 -45 31 -52 37 -7 5 -14 10 -16 10 -3 0 -62 38 -131 85 -70 47 -131 85 -137 85 -6 0 -9 -44 -7 -117z"/> <path d="M12 220 l3 -123 70 -48 70 -48 178 -1 c110 0 176 4 172 9 -5 9 -468 321 -487 329 -5 2 -7 -51 -6 -118z"/> <path d="M1743 181 c-128 -86 -238 -162 -245 -169 -9 -9 26 -12 166 -12 l178 0 69 47 c39 25 73 51 77 57 11 19 10 236 -2 235 -6 -1 -116 -72 -243 -158z"/> </g> </svg>
