<?xml version="1.0" encoding="utf-8"?>
<!-- Uploaded to: SVG Repo, www.svgrepo.com, Generator: SVG Repo Mixer Tools -->
<svg width="800px" height="800px" viewBox="0 0 14 14" role="img" focusable="false" aria-hidden="true"
    xmlns="http://www.w3.org/2000/svg">
    <path fill="olive"
        d="M12.123424 3.09708C9.1750899 1.36849 7.0055019 1 7.0055019 1s-.0023.00035-.0055.00096c-.0033-.00061-.0055-.00096-.0055-.00096s-2.169706.36849-5.117921 2.09708c0 0-.390942 8.72672 5.117921 9.90292.0019-.00035.0036-.00096.0055-.001.0019.00035.0036.00096.0055.001 5.5087451-1.1762 5.1179221-9.90292 5.1179221-9.90292z" />
    <path fill="#ff0"
        d="M7.0058749 1.74098c.482647.10437 2.177431.53826 4.3878041 1.77816-.0096 1.61164-.285353 7.71006-4.3878041 8.73494V1.74098z" />
</svg>